<?xml version="1.0" encoding="UTF-8"?>
<!DOCTYPE svg PUBLIC "-//W3C//DTD SVG 1.1//EN" "http://www.w3.org/Graphics/SVG/1.1/DTD/svg11.dtd">
<!-- Creator: CorelDRAW 2021 (64-Bit) -->
<svg xmlns="http://www.w3.org/2000/svg" xml:space="preserve" width="2.603in" height="1.431in" version="1.1" style="shape-rendering:geometricPrecision; text-rendering:geometricPrecision; image-rendering:optimizeQuality; fill-rule:evenodd; clip-rule:evenodd"
viewBox="0 0 2603 1431"
 xmlns:xlink="http://www.w3.org/1999/xlink"
 xmlns:xodm="http://www.corel.com/coreldraw/odm/2003">
 <defs>
  <style type="text/css">
   <![CDATA[
    .fil0 {fill:#F3942A}
   ]]>
  </style>
 </defs>
 <g id="Layer_x0020_1">
  <metadata id="CorelCorpID_0Corel-Layer"/>
  <path class="fil0" d="M1756.7 456.67c102.44,-244.37 378.96,-324.59 607.83,-175.9 268.63,174.5 300.2,564.17 136.25,820.9 -214.77,336.32 -705.4,416.37 -953.11,82.26l-606.86 -868.44c-267.87,-257.94 -689.12,0.35 -769.3,309.27 -82.37,317.29 134.61,633.16 441.13,715.76 157.57,42.45 299.18,8.85 449.64,-37.41l10.77 18.68c-360.55,218.53 -830.54,109.28 -1013.57,-296.94 -188.58,-418.47 78.11,-935.86 535.99,-1014.62 444.66,-76.47 692.21,342.97 896,662.61 140.4,220.17 239.29,592.43 566.65,529.09 407,-78.73 581.13,-728.63 139.05,-886.81 -179.94,-64.39 -313.63,22.66 -440.46,141.55l-0.01 -0z"/>
 </g>
</svg>
